<?xml version="1.0"?>

<!DOCTYPE svg PUBLIC '-//W3C//DTD SVG 1.0//EN' 'http://www.w3.org/TR/2001/REC-SVG-20010904/DTD/svg10.dtd'>
<svg fill-opacity="1" xmlns:xlink="http://www.w3.org/1999/xlink" color-rendering="auto" color-interpolation="auto" text-rendering="auto" stroke="black" stroke-linecap="square" stroke-miterlimit="10" shape-rendering="auto" stroke-opacity="1" fill="black" stroke-dasharray="none" font-weight="normal" stroke-width="1" xmlns="http://www.w3.org/2000/svg" font-family="&apos;Dialog&apos;" font-style="normal" stroke-linejoin="miter" font-size="12" stroke-dashoffset="0" image-rendering="auto">
  <!--Unicode Character 'DIE FACE-2' (U+2681)-->
  <defs id="genericDefs" />
  <g>
    <g>
      <path d="M16.875 354.375 L16.875 180 L191.25 180 L191.25 354.375 L16.875 354.375 ZM31.5 339.75 L176.625 339.75 L176.625 194.625 L31.5 194.625 L31.5 339.75 ZM63 325.125 Q57.6562 325.125 54 323.0156 Q50.3438 320.9062 48.2344 317.25 Q46.125 313.5938 46.125 308.25 Q46.125 302.9062 48.2344 299.25 Q50.3438 295.5938 54 293.4844 Q57.6562 291.375 63 291.375 Q68.3438 291.375 72 293.4844 Q75.6562 295.5938 77.7656 299.25 Q79.875 302.9062 79.875 308.25 Q79.875 313.5938 77.7656 317.25 Q75.6562 320.9062 72 323.0156 Q68.3438 325.125 63 325.125 ZM145.125 243 Q139.7812 243 136.125 240.8906 Q132.4688 238.7812 130.3594 235.125 Q128.25 231.4688 128.25 226.125 Q128.25 220.7812 130.3594 217.125 Q132.4688 213.4688 136.125 211.3594 Q139.7812 209.25 145.125 209.25 Q150.4688 209.25 154.125 211.3594 Q157.7812 213.4688 159.8906 217.125 Q162 220.7812 162 226.125 Q162 231.4688 159.8906 235.125 Q157.7812 238.7812 154.125 240.8906 Q150.4688 243 145.125 243 Z" stroke="none" />
    </g>
  </g>
</svg>
